<svg width="40" height="40" viewBox="0 0 40 40" fill="none" xmlns="http://www.w3.org/2000/svg">
<rect width="40" height="40" fill="#3A3A3A"/>
<path d="M10.9318 13.3636V25H9.52273V15.4091H9.43182C9.37879 15.5152 9.24242 15.6364 9.02273 15.7727C8.80303 15.9053 8.51894 16.0227 8.17045 16.125C7.82197 16.2235 7.42424 16.2727 6.97727 16.2727V15.0909C7.42803 15.0909 7.81818 15.0095 8.14773 14.8466C8.47727 14.6837 8.75189 14.4924 8.97159 14.2727C9.19508 14.053 9.36364 13.8542 9.47727 13.6761C9.5947 13.4981 9.66288 13.3939 9.68182 13.3636H10.9318ZM14.267 25V23.9773L18.108 19.7727C18.5587 19.2803 18.9299 18.8523 19.2216 18.4886C19.5133 18.1212 19.7292 17.7765 19.8693 17.4545C20.0133 17.1288 20.0852 16.7879 20.0852 16.4318C20.0852 15.8182 19.8712 15.3314 19.4432 14.9716C19.0189 14.6117 18.4905 14.4318 17.858 14.4318C17.1837 14.4318 16.6477 14.6345 16.25 15.0398C15.8523 15.4413 15.6534 15.9735 15.6534 16.6364H14.3125C14.3125 15.9545 14.4697 15.3561 14.7841 14.8409C15.0985 14.3258 15.5265 13.9242 16.0682 13.6364C16.6136 13.3485 17.2254 13.2045 17.9034 13.2045C18.5852 13.2045 19.1894 13.3485 19.7159 13.6364C20.2424 13.9242 20.6553 14.3125 20.9545 14.8011C21.2538 15.2898 21.4034 15.8333 21.4034 16.4318C21.4034 16.8598 21.3258 17.2784 21.1705 17.6875C21.0189 18.0928 20.7538 18.5455 20.375 19.0455C20 19.5417 19.4792 20.1477 18.8125 20.8636L16.1989 23.6591V23.75H21.608V25H14.267ZM27.8864 25.1591C27.1364 25.1591 26.4678 25.0303 25.8807 24.7727C25.2973 24.5152 24.8333 24.1572 24.4886 23.6989C24.1477 23.2367 23.9621 22.7008 23.9318 22.0909H25.3636C25.4053 22.6515 25.6629 23.0947 26.1364 23.4205C26.6136 23.7462 27.1894 23.9091 27.8636 23.9091C28.6098 23.9091 29.2235 23.7197 29.7045 23.3409C30.1894 22.9583 30.4318 22.4583 30.4318 21.8409C30.4318 21.197 30.1932 20.6723 29.7159 20.267C29.2424 19.8617 28.5644 19.6591 27.6818 19.6591H26.75V18.4091H27.6818C28.3712 18.4091 28.9337 18.2254 29.3693 17.858C29.8049 17.4905 30.0227 17 30.0227 16.3864C30.0227 15.7992 29.8314 15.3277 29.4489 14.9716C29.0663 14.6117 28.553 14.4318 27.9091 14.4318C27.5076 14.4318 27.1288 14.5057 26.7727 14.6534C26.4205 14.7973 26.1326 15.0076 25.9091 15.2841C25.6856 15.5568 25.5644 15.8864 25.5455 16.2727H24.1818C24.2045 15.6629 24.3883 15.1288 24.733 14.6705C25.0777 14.2083 25.5284 13.8485 26.0852 13.5909C26.6458 13.3333 27.2614 13.2045 27.9318 13.2045C28.6515 13.2045 29.2689 13.3504 29.7841 13.642C30.2992 13.9299 30.6951 14.3106 30.9716 14.7841C31.2481 15.2576 31.3864 15.7689 31.3864 16.3182C31.3864 16.9735 31.214 17.5322 30.8693 17.9943C30.5284 18.4564 30.0644 18.7765 29.4773 18.9545V19.0455C30.2121 19.1667 30.786 19.4792 31.1989 19.983C31.6117 20.483 31.8182 21.1023 31.8182 21.8409C31.8182 22.4735 31.6458 23.0417 31.3011 23.5455C30.9602 24.0455 30.4943 24.4394 29.9034 24.7273C29.3125 25.0152 28.6402 25.1591 27.8864 25.1591Z" fill="white"/>
</svg>
