<svg width="40" height="40" viewBox="0 0 40 40" fill="none" xmlns="http://www.w3.org/2000/svg">
<rect width="40" height="40" fill="#3A3A3A"/>
<path d="M10 31.5V8H28.5V25.5H22.5V31.5H10Z" stroke="white" stroke-linecap="square"/>
<line x1="23" y1="31.2929" x2="28.2929" y2="26" stroke="white" stroke-linecap="square"/>
<line x1="13.5" y1="13.5" x2="24.5" y2="13.5" stroke="white" stroke-linecap="square"/>
<path d="M35.1476 26.3713C35.4989 26.7804 35.6153 27.3881 35.4384 28.0962C35.2619 28.8029 34.7993 29.5642 34.0718 30.1888C33.3443 30.8134 32.5217 31.1556 31.7964 31.2231C31.0697 31.2908 30.4866 31.0838 30.1353 30.6746C29.7841 30.2655 29.6677 29.6578 29.8446 28.9497C30.0211 28.243 30.4837 27.4817 31.2112 26.8571C31.9387 26.2324 32.7613 25.8903 33.4865 25.8228C34.2132 25.7551 34.7963 25.9621 35.1476 26.3713Z" stroke="white"/>
<path d="M29.0766 32.016C29.4415 32.413 29.5783 33.0164 29.4255 33.7301C29.273 34.4424 28.8364 35.2189 28.1304 35.8677C27.4244 36.5165 26.6139 36.8863 25.8913 36.9783C25.1673 37.0704 24.5775 36.8833 24.2126 36.4862C23.8477 36.0892 23.7109 35.4858 23.8637 34.7721C24.0162 34.0599 24.4529 33.2833 25.1589 32.6345C25.8648 31.9857 26.6754 31.6159 27.3979 31.5239C28.1219 31.4318 28.7117 31.6189 29.0766 32.016Z" stroke="white"/>
<line x1="26.4808" y1="34.422" x2="32.8597" y2="28.8264" stroke="white"/>
<rect x="2.5" y="16.5" width="23" height="6" fill="#3A3A3A" stroke="white"/>
</svg>
