<svg width="40" height="40" viewBox="0 0 40 40" fill="none" xmlns="http://www.w3.org/2000/svg">
<g clip-path="url(#clip0)">
<path d="M35.3299 38.1193C34.8299 38.1193 34.3796 38.0199 33.979 37.821C33.5785 37.6222 33.2575 37.3494 33.016 37.0028C32.7745 36.6562 32.6424 36.2614 32.6197 35.8182H33.6424C33.6822 36.2131 33.8612 36.5398 34.1793 36.7983C34.5004 37.054 34.8839 37.1818 35.3299 37.1818C35.6879 37.1818 36.006 37.098 36.2844 36.9304C36.5657 36.7628 36.7859 36.5327 36.945 36.2401C37.1069 35.9446 37.1879 35.6108 37.1879 35.2386C37.1879 34.858 37.104 34.5185 36.9364 34.2202C36.7717 33.919 36.5444 33.6818 36.2546 33.5085C35.9648 33.3352 35.6339 33.2472 35.2617 33.2443C34.9947 33.2415 34.7205 33.2827 34.4393 33.3679C34.158 33.4503 33.9265 33.5568 33.7447 33.6875L32.756 33.5682L33.2844 29.2727H37.8185V30.2102H34.1708L33.864 32.7841H33.9151C34.0941 32.642 34.3185 32.5241 34.5884 32.4304C34.8583 32.3366 35.1396 32.2898 35.4322 32.2898C35.9663 32.2898 36.4421 32.4176 36.8597 32.6733C37.2802 32.9261 37.6097 33.2727 37.8484 33.7131C38.0898 34.1534 38.2106 34.6562 38.2106 35.2216C38.2106 35.7784 38.0856 36.2756 37.8356 36.7131C37.5884 37.1477 37.2475 37.4915 36.8129 37.7443C36.3782 37.9943 35.8839 38.1193 35.3299 38.1193Z" fill="white"/>
<line x1="31" y1="34.5" x2="26" y2="34.5" stroke="white"/>
<line x1="28.5" y1="37" x2="28.5" y2="32" stroke="white"/>
<path d="M11 29.5V6H29.5V23.5H23.5V29.5H11Z" stroke="white" stroke-linecap="square"/>
<line x1="24" y1="29.2929" x2="29.2929" y2="24" stroke="white" stroke-linecap="square"/>
<line x1="14.5" y1="11.5" x2="25.5" y2="11.5" stroke="white" stroke-linecap="square"/>
<rect x="3.5" y="14.5" width="23" height="6" fill="#3A3A3A" stroke="white"/>
</g>
<defs>
<clipPath id="clip0">
<rect width="40" height="40" fill="white"/>
</clipPath>
</defs>
</svg>
