<svg width="40" height="25" viewBox="0 0 40 25" fill="none" xmlns="http://www.w3.org/2000/svg">
<path d="M23.1065 18.1591C25.3224 18.1591 26.9474 16.5227 26.9474 14.2955C26.9474 12.0398 25.3793 10.3864 23.2429 10.3864C22.4588 10.3864 21.6974 10.6648 21.2202 11.0455H21.152L21.5611 7.61364H26.4247V6.36364H20.3793L19.6747 12.0909L20.9929 12.25C21.4759 11.9034 22.2997 11.6534 23.0156 11.6591C24.4986 11.6705 25.5838 12.7955 25.5838 14.3182C25.5838 15.8125 24.5384 16.9091 23.1065 16.9091C21.9134 16.9091 20.9645 16.142 20.8565 15.0909H19.4929C19.5781 16.8636 21.1065 18.1591 23.1065 18.1591Z" fill="white"/>
<line x1="18" y1="12.8999" x2="12" y2="12.8999" stroke="white"/>
<line x1="15.1" y1="16" x2="15.1" y2="10" stroke="white"/>
</svg>
