<svg width="53" height="25" viewBox="0 0 53 25" fill="none" xmlns="http://www.w3.org/2000/svg">
<path d="M13.1989 18H11.7216L15.9943 6.36364H17.4489L21.7216 18H20.2443L19.0739 14.7045H14.3693L13.1989 18ZM14.8125 13.4545H18.6307L16.767 8.20455H16.6761L14.8125 13.4545ZM26.6477 18.1818C25.9205 18.1818 25.2784 17.9981 24.7216 17.6307C24.1648 17.2595 23.7292 16.7367 23.4148 16.0625C23.1004 15.3845 22.9432 14.5833 22.9432 13.6591C22.9432 12.7424 23.1004 11.947 23.4148 11.2727C23.7292 10.5985 24.1667 10.0777 24.7273 9.71023C25.2879 9.3428 25.9356 9.15909 26.6705 9.15909C27.2386 9.15909 27.6875 9.25379 28.017 9.44318C28.3504 9.62879 28.6042 9.84091 28.7784 10.0795C28.9564 10.3144 29.0947 10.5076 29.1932 10.6591H29.3068V6.36364H30.6477V18H29.3523V16.6591H29.1932C29.0947 16.8182 28.9545 17.0189 28.7727 17.2614C28.5909 17.5 28.3314 17.714 27.9943 17.9034C27.6572 18.089 27.2083 18.1818 26.6477 18.1818ZM26.8295 16.9773C27.6364 16.9773 28.2538 16.6686 28.6818 16.0511C29.1136 15.4299 29.3295 14.625 29.3295 13.6364C29.3295 12.6591 29.1174 11.8693 28.6932 11.267C28.2689 10.6648 27.6477 10.3636 26.8295 10.3636C26.2614 10.3636 25.7879 10.5095 25.4091 10.8011C25.0341 11.089 24.7519 11.4811 24.5625 11.9773C24.3769 12.4697 24.2841 13.0227 24.2841 13.6364C24.2841 14.2576 24.3788 14.822 24.5682 15.3295C24.7614 15.8333 25.0455 16.2348 25.4205 16.5341C25.7992 16.8295 26.2689 16.9773 26.8295 16.9773ZM36.5852 18.1818C35.858 18.1818 35.2159 17.9981 34.6591 17.6307C34.1023 17.2595 33.6667 16.7367 33.3523 16.0625C33.0379 15.3845 32.8807 14.5833 32.8807 13.6591C32.8807 12.7424 33.0379 11.947 33.3523 11.2727C33.6667 10.5985 34.1042 10.0777 34.6648 9.71023C35.2254 9.3428 35.8731 9.15909 36.608 9.15909C37.1761 9.15909 37.625 9.25379 37.9545 9.44318C38.2879 9.62879 38.5417 9.84091 38.7159 10.0795C38.8939 10.3144 39.0322 10.5076 39.1307 10.6591H39.2443V6.36364H40.5852V18H39.2898V16.6591H39.1307C39.0322 16.8182 38.892 17.0189 38.7102 17.2614C38.5284 17.5 38.2689 17.714 37.9318 17.9034C37.5947 18.089 37.1458 18.1818 36.5852 18.1818ZM36.767 16.9773C37.5739 16.9773 38.1913 16.6686 38.6193 16.0511C39.0511 15.4299 39.267 14.625 39.267 13.6364C39.267 12.6591 39.0549 11.8693 38.6307 11.267C38.2064 10.6648 37.5852 10.3636 36.767 10.3636C36.1989 10.3636 35.7254 10.5095 35.3466 10.8011C34.9716 11.089 34.6894 11.4811 34.5 11.9773C34.3144 12.4697 34.2216 13.0227 34.2216 13.6364C34.2216 14.2576 34.3163 14.822 34.5057 15.3295C34.6989 15.8333 34.983 16.2348 35.358 16.5341C35.7367 16.8295 36.2064 16.9773 36.767 16.9773Z" fill="white"/>
</svg>
