<svg width="40" height="25" viewBox="0 0 40 25" fill="none" xmlns="http://www.w3.org/2000/svg">
<path d="M19.858 6.36364H18.4489L15.5398 8.29545V9.72727L18.3807 7.84091H18.4489V18H19.858V6.36364ZM27 18.1591C29.5682 18.1591 31.0455 15.983 31.0455 12.1818C31.0455 8.40909 29.5455 6.20455 27 6.20455C24.4545 6.20455 22.9545 8.40909 22.9545 12.1818C22.9545 15.983 24.4318 18.1591 27 18.1591ZM27 16.9091C25.3068 16.9091 24.3182 15.2102 24.3182 12.1818C24.3182 9.15909 25.3182 7.43182 27 7.43182C28.6818 7.43182 29.6818 9.15909 29.6818 12.1818C29.6818 15.2102 28.6932 16.9091 27 16.9091Z" fill="white"/>
<line x1="14" y1="12.8999" x2="8" y2="12.8999" stroke="white"/>
<line x1="11.1" y1="16" x2="11.1" y2="10" stroke="white"/>
</svg>
