<svg width="40" height="40" viewBox="0 0 40 40" fill="none" xmlns="http://www.w3.org/2000/svg">
<g clip-path="url(#clip0)">
<path d="M29.902 29.2727V38H28.8452V30.8068H28.777C28.7372 30.8864 28.6349 30.9773 28.4702 31.0795C28.3054 31.179 28.0923 31.267 27.831 31.3438C27.5696 31.4176 27.2713 31.4545 26.9361 31.4545V30.5682C27.2741 30.5682 27.5668 30.5071 27.8139 30.3849C28.0611 30.2628 28.267 30.1193 28.4318 29.9545C28.5994 29.7898 28.7259 29.6406 28.8111 29.5071C28.8991 29.3736 28.9503 29.2955 28.9645 29.2727H29.902ZM35.25 38.1193C34.2869 38.1193 33.5398 37.7287 33.0085 36.9474C32.4801 36.1662 32.2159 35.0625 32.2159 33.6364C32.2159 32.2216 32.483 31.1207 33.017 30.3338C33.5511 29.5469 34.2955 29.1534 35.25 29.1534C36.2045 29.1534 36.9489 29.5469 37.483 30.3338C38.017 31.1207 38.2841 32.2216 38.2841 33.6364C38.2841 35.0625 38.0185 36.1662 37.4872 36.9474C36.9588 37.7287 36.2131 38.1193 35.25 38.1193ZM35.25 37.1818C35.8864 37.1818 36.3807 36.875 36.733 36.2614C37.0852 35.6477 37.2614 34.7727 37.2614 33.6364C37.2614 32.5028 37.0838 31.6264 36.7287 31.0071C36.3736 30.3849 35.8807 30.0739 35.25 30.0739C34.6193 30.0739 34.1264 30.3849 33.7713 31.0071C33.4162 31.6264 33.2386 32.5028 33.2386 33.6364C33.2386 34.7727 33.4148 35.6477 33.767 36.2614C34.1222 36.875 34.6165 37.1818 35.25 37.1818Z" fill="white"/>
<line x1="26" y1="34.5" x2="21" y2="34.5" stroke="white"/>
<line x1="23.5" y1="37" x2="23.5" y2="32" stroke="white"/>
<path d="M11 29.5V6H29.5V23.5H23.5V29.5H11Z" stroke="white" stroke-linecap="square"/>
<line x1="24" y1="29.2929" x2="29.2929" y2="24" stroke="white" stroke-linecap="square"/>
<line x1="14.5" y1="11.5" x2="25.5" y2="11.5" stroke="white" stroke-linecap="square"/>
<rect x="3.5" y="14.5" width="23" height="6" fill="#3A3A3A" stroke="white"/>
</g>
<defs>
<clipPath id="clip0">
<rect width="40" height="40" fill="white"/>
</clipPath>
</defs>
</svg>
