<svg width="40" height="40" viewBox="0 0 40 40" fill="none" xmlns="http://www.w3.org/2000/svg">
<path d="M34.5 26.5H10C9.44772 26.5 9 26.0523 9 25.5V10C9 9.44772 9.44772 9 10 9H16.5462C16.8346 9 17.1089 9.12448 17.2988 9.3415L20.2012 12.6585C20.3911 12.8755 20.6654 13 20.9538 13H34.5C35.0523 13 35.5 13.4477 35.5 14V25.5C35.5 26.0523 35.0523 26.5 34.5 26.5Z" fill="#3A3A3A" stroke="white"/>
<path d="M29.5 31H5C4.44772 31 4 30.5523 4 30V14.5C4 13.9477 4.44772 13.5 5 13.5H11.5462C11.8346 13.5 12.1089 13.6245 12.2988 13.8415L15.2012 17.1585C15.3911 17.3755 15.6654 17.5 15.9538 17.5H29.5C30.0523 17.5 30.5 17.9477 30.5 18.5V30C30.5 30.5523 30.0523 31 29.5 31Z" fill="#3A3A3A" stroke="white"/>
</svg>
