<svg width="40" height="40" viewBox="0 0 40 40" fill="none" xmlns="http://www.w3.org/2000/svg">
<path d="M8.93182 13.3636V25H7.52273V15.4091H7.43182C7.37879 15.5152 7.24242 15.6364 7.02273 15.7727C6.80303 15.9053 6.51894 16.0227 6.17045 16.125C5.82197 16.2235 5.42424 16.2727 4.97727 16.2727V15.0909C5.42803 15.0909 5.81818 15.0095 6.14773 14.8466C6.47727 14.6837 6.75189 14.4924 6.97159 14.2727C7.19508 14.053 7.36364 13.8542 7.47727 13.6761C7.5947 13.4981 7.66288 13.3939 7.68182 13.3636H8.93182ZM13.267 25.0909C12.9867 25.0909 12.7462 24.9905 12.5455 24.7898C12.3447 24.589 12.2443 24.3485 12.2443 24.0682C12.2443 23.7879 12.3447 23.5473 12.5455 23.3466C12.7462 23.1458 12.9867 23.0455 13.267 23.0455C13.5473 23.0455 13.7879 23.1458 13.9886 23.3466C14.1894 23.5473 14.2898 23.7879 14.2898 24.0682C14.2898 24.3485 14.1894 24.589 13.9886 24.7898C13.7879 24.9905 13.5473 25.0909 13.267 25.0909ZM16.6733 25V23.9773L20.5142 19.7727C20.965 19.2803 21.3362 18.8523 21.6278 18.4886C21.9195 18.1212 22.1354 17.7765 22.2756 17.4545C22.4195 17.1288 22.4915 16.7879 22.4915 16.4318C22.4915 15.8182 22.2775 15.3314 21.8494 14.9716C21.4252 14.6117 20.8968 14.4318 20.2642 14.4318C19.59 14.4318 19.054 14.6345 18.6562 15.0398C18.2585 15.4413 18.0597 15.9735 18.0597 16.6364H16.7188C16.7188 15.9545 16.8759 15.3561 17.1903 14.8409C17.5047 14.3258 17.9328 13.9242 18.4744 13.6364C19.0199 13.3485 19.6316 13.2045 20.3097 13.2045C20.9915 13.2045 21.5956 13.3485 22.1222 13.6364C22.6487 13.9242 23.0616 14.3125 23.3608 14.8011C23.66 15.2898 23.8097 15.8333 23.8097 16.4318C23.8097 16.8598 23.732 17.2784 23.5767 17.6875C23.4252 18.0928 23.16 18.5455 22.7812 19.0455C22.4062 19.5417 21.8854 20.1477 21.2188 20.8636L18.6051 23.6591V23.75H24.0142V25H16.6733ZM30.2926 25.1591C29.5426 25.1591 28.8741 25.0303 28.2869 24.7727C27.7036 24.5152 27.2396 24.1572 26.8949 23.6989C26.554 23.2367 26.3684 22.7008 26.3381 22.0909H27.7699C27.8116 22.6515 28.0691 23.0947 28.5426 23.4205C29.0199 23.7462 29.5956 23.9091 30.2699 23.9091C31.0161 23.9091 31.6297 23.7197 32.1108 23.3409C32.5956 22.9583 32.8381 22.4583 32.8381 21.8409C32.8381 21.197 32.5994 20.6723 32.1222 20.267C31.6487 19.8617 30.9706 19.6591 30.0881 19.6591H29.1562V18.4091H30.0881C30.7775 18.4091 31.34 18.2254 31.7756 17.858C32.2112 17.4905 32.429 17 32.429 16.3864C32.429 15.7992 32.2377 15.3277 31.8551 14.9716C31.4725 14.6117 30.9593 14.4318 30.3153 14.4318C29.9138 14.4318 29.535 14.5057 29.179 14.6534C28.8267 14.7973 28.5388 15.0076 28.3153 15.2841C28.0919 15.5568 27.9706 15.8864 27.9517 16.2727H26.5881C26.6108 15.6629 26.7945 15.1288 27.1392 14.6705C27.4839 14.2083 27.9347 13.8485 28.4915 13.5909C29.0521 13.3333 29.6676 13.2045 30.3381 13.2045C31.0578 13.2045 31.6752 13.3504 32.1903 13.642C32.7055 13.9299 33.1013 14.3106 33.3778 14.7841C33.6544 15.2576 33.7926 15.7689 33.7926 16.3182C33.7926 16.9735 33.6203 17.5322 33.2756 17.9943C32.9347 18.4564 32.4706 18.7765 31.8835 18.9545V19.0455C32.6184 19.1667 33.1922 19.4792 33.6051 19.983C34.018 20.483 34.2244 21.1023 34.2244 21.8409C34.2244 22.4735 34.0521 23.0417 33.7074 23.5455C33.3665 24.0455 32.9006 24.4394 32.3097 24.7273C31.7188 25.0152 31.0464 25.1591 30.2926 25.1591Z" fill="white"/>
</svg>
