<svg width="40" height="40" viewBox="0 0 40 40" fill="none" xmlns="http://www.w3.org/2000/svg">
<path d="M9,13.5L9,10C9,9.448 9.448,9 10,9L16.546,9C16.835,9 17.109,9.124 17.299,9.342L20.201,12.659C20.391,12.876 20.665,13 20.954,13L34.5,13C35.052,13 35.5,13.448 35.5,14L35.5,25.5C35.5,26.052 35.052,26.5 34.5,26.5L30.5,26.5L30.5,18.5C30.5,17.948 30.052,17.5 29.5,17.5L15.954,17.5C15.665,17.5 15.391,17.376 15.201,17.159L12.299,13.842C12.109,13.625 11.835,13.5 11.546,13.5L9,13.5Z" style="fill:none;fill-rule:nonzero;stroke:white;stroke-width:1px;"/>
<path d="M29.5,31L5,31C4.448,31 4,30.552 4,30L4,14.5C4,13.948 4.448,13.5 5,13.5L11.546,13.5C11.835,13.5 12.109,13.625 12.299,13.842L15.201,17.159C15.391,17.376 15.665,17.5 15.954,17.5L29.5,17.5C30.052,17.5 30.5,17.948 30.5,18.5L30.5,30C30.5,30.552 30.052,31 29.5,31Z" style="fill:none;fill-rule:nonzero;stroke:white;stroke-width:1px;"/>
</svg>
