<svg width="40" height="40" viewBox="0 0 40 40" fill="none" xmlns="http://www.w3.org/2000/svg">
<path d="M10,16.5L10,8L28.5,8L28.5,25.5L22.5,25.5L22.5,31.5L10,31.5L10,22.5L25.5,22.5L25.5,16.5L10,16.5Z" style="fill:none;fill-rule:nonzero;stroke:white;stroke-width:1px;"/>
<path d="M23,31.293L28.293,26" style="fill:none;fill-rule:nonzero;stroke:white;stroke-width:1px;"/>
<path d="M13.5,13.5L24.5,13.5" style="fill:none;fill-rule:nonzero;stroke:white;stroke-width:1px;"/>
<path d="M35.148,26.371C35.499,26.78 35.615,27.388 35.438,28.096C35.262,28.803 34.799,29.564 34.072,30.189C33.344,30.813 32.522,31.156 31.796,31.223C31.07,31.291 30.487,31.084 30.135,30.675C29.784,30.266 29.668,29.658 29.845,28.95C30.021,28.243 30.484,27.482 31.211,26.857C31.939,26.232 32.761,25.89 33.487,25.823C34.213,25.755 34.796,25.962 35.148,26.371Z" style="fill:none;fill-rule:nonzero;stroke:white;stroke-width:1px;stroke-linecap:butt;"/>
<path d="M29.077,32.016C29.442,32.413 29.578,33.016 29.426,33.73C29.273,34.442 28.836,35.219 28.13,35.868C27.424,36.517 26.614,36.886 25.891,36.978C25.167,37.07 24.578,36.883 24.213,36.486C23.848,36.089 23.711,35.486 23.864,34.772C24.016,34.06 24.453,33.283 25.159,32.635C25.865,31.986 26.675,31.616 27.398,31.524C28.122,31.432 28.712,31.619 29.077,32.016Z" style="fill:none;fill-rule:nonzero;stroke:white;stroke-width:1px;stroke-linecap:butt;"/>
<path d="M26.481,34.422L32.86,28.826" style="fill:none;fill-rule:nonzero;stroke:white;stroke-width:1px;stroke-linecap:butt;"/>
<rect x="2.5" y="16.5" width="23" height="6" style="fill:none;stroke:white;stroke-width:1px;stroke-linecap:butt;"/>
</svg>
