<svg width="40" height="40" viewBox="0 0 40 40" fill="none" xmlns="http://www.w3.org/2000/svg">
<path d="M11.5561 33.4318C9.73082 33.4318 8.44176 32.9986 7.68892 32.1321C6.94318 31.2656 6.57031 29.9233 6.57031 28.1051V23.9716C6.57031 22.7855 6.33949 21.9545 5.87784 21.4787C5.4233 21.0028 4.59588 20.7649 3.3956 20.7649V18.826C4.59588 18.826 5.4233 18.5881 5.87784 18.1122C6.33949 17.6293 6.57031 16.7983 6.57031 15.6193V11.4858C6.57031 9.66051 6.94318 8.31818 7.68892 7.45881C8.44176 6.59233 9.73082 6.15909 11.5561 6.15909V7.77841C10.3629 7.77841 9.52841 8.0767 9.05256 8.6733C8.5767 9.26278 8.33878 10.2003 8.33878 11.4858V16.1839C8.33878 17.093 8.16832 17.8459 7.82742 18.4425C7.48651 19.0391 6.82244 19.4581 5.83523 19.6996V19.8913C6.82244 20.1328 7.48651 20.5518 7.82742 21.1484C8.16832 21.745 8.33878 22.4979 8.33878 23.407V28.1051C8.33878 29.3906 8.5767 30.3281 9.05256 30.9176C9.52841 31.5142 10.3629 31.8125 11.5561 31.8125V33.4318Z" fill="white"/>
<path d="M28.4439 33.4318C30.2692 33.4318 31.5582 32.9986 32.3111 32.1321C33.0568 31.2656 33.4297 29.9233 33.4297 28.1051V23.9716C33.4297 22.7855 33.6605 21.9545 34.1222 21.4787C34.5767 21.0028 35.4041 20.7649 36.6044 20.7649V18.826C35.4041 18.826 34.5767 18.5881 34.1222 18.1122C33.6605 17.6293 33.4297 16.7983 33.4297 15.6193V11.4858C33.4297 9.66051 33.0568 8.31818 32.3111 7.45881C31.5582 6.59233 30.2692 6.15909 28.4439 6.15909V7.77841C29.6371 7.77841 30.4716 8.0767 30.9474 8.6733C31.4233 9.26278 31.6612 10.2003 31.6612 11.4858V16.1839C31.6612 17.093 31.8317 17.8459 32.1726 18.4425C32.5135 19.0391 33.1776 19.4581 34.1648 19.6996V19.8913C33.1776 20.1328 32.5135 20.5518 32.1726 21.1484C31.8317 21.745 31.6612 22.4979 31.6612 23.407V28.1051C31.6612 29.3906 31.4233 30.3281 30.9474 30.9176C30.4716 31.5142 29.6371 31.8125 28.4439 31.8125V33.4318Z" fill="white"/>
<path d="M15 20C15 21.1046 14.1046 22 13 22C11.8954 22 11 21.1046 11 20C11 18.8954 11.8954 18 13 18C14.1046 18 15 18.8954 15 20Z" fill="white"/>
<circle cx="20" cy="20" r="2" fill="white"/>
<circle cx="27" cy="20" r="2" fill="white"/>
</svg>
