<svg width="40" height="40" viewBox="0 0 40 40" fill="none" xmlns="http://www.w3.org/2000/svg">
<path d="M6.88636 25H5.40909L9.68182 13.3636H11.1364L15.4091 25H13.9318L12.7614 21.7045H8.05682L6.88636 25ZM8.5 20.4545H12.3182L10.4545 15.2045H10.3636L8.5 20.4545ZM17.2216 25V13.3636H18.5625V17.6591H18.6761C18.7746 17.5076 18.911 17.3144 19.0852 17.0795C19.2633 16.8409 19.517 16.6288 19.8466 16.4432C20.1799 16.2538 20.6307 16.1591 21.1989 16.1591C21.9337 16.1591 22.5814 16.3428 23.142 16.7102C23.7027 17.0777 24.1402 17.5985 24.4545 18.2727C24.7689 18.947 24.9261 19.7424 24.9261 20.6591C24.9261 21.5833 24.7689 22.3845 24.4545 23.0625C24.1402 23.7367 23.7045 24.2595 23.1477 24.6307C22.5909 24.9981 21.9489 25.1818 21.2216 25.1818C20.661 25.1818 20.2121 25.089 19.875 24.9034C19.5379 24.714 19.2784 24.5 19.0966 24.2614C18.9148 24.0189 18.7746 23.8182 18.6761 23.6591H18.517V25H17.2216ZM18.5398 20.6364C18.5398 21.625 18.7538 22.4299 19.1818 23.0511C19.6136 23.6686 20.233 23.9773 21.0398 23.9773C21.6004 23.9773 22.0682 23.8295 22.4432 23.5341C22.822 23.2348 23.1061 22.8333 23.2955 22.3295C23.4886 21.822 23.5852 21.2576 23.5852 20.6364C23.5852 20.0227 23.4905 19.4697 23.3011 18.9773C23.1155 18.4811 22.8333 18.089 22.4545 17.8011C22.0795 17.5095 21.608 17.3636 21.0398 17.3636C20.2216 17.3636 19.6004 17.6648 19.1761 18.267C18.7519 18.8693 18.5398 19.6591 18.5398 20.6364ZM30.5227 25.1818C29.7045 25.1818 29 24.9886 28.4091 24.6023C27.8182 24.2159 27.3636 23.6837 27.0455 23.0057C26.7273 22.3277 26.5682 21.553 26.5682 20.6818C26.5682 19.7955 26.7311 19.0133 27.0568 18.3352C27.3864 17.6534 27.8447 17.1212 28.4318 16.7386C29.0227 16.3523 29.7121 16.1591 30.5 16.1591C31.1136 16.1591 31.6667 16.2727 32.1591 16.5C32.6515 16.7273 33.0549 17.0455 33.3693 17.4545C33.6837 17.8636 33.8788 18.3409 33.9545 18.8864H32.6136C32.5114 18.4886 32.2841 18.1364 31.9318 17.8295C31.5833 17.5189 31.1136 17.3636 30.5227 17.3636C29.7386 17.3636 29.1061 17.6629 28.625 18.2614C28.1477 18.8561 27.9091 19.6477 27.9091 20.6364C27.9091 21.6477 28.1458 22.4583 28.6193 23.0682C29.0928 23.6742 29.7273 23.9773 30.5227 23.9773C31.0455 23.9773 31.4924 23.8428 31.8636 23.5739C32.2386 23.3049 32.4886 22.9318 32.6136 22.4545H33.9545C33.8788 22.9697 33.6913 23.4337 33.392 23.8466C33.0966 24.2557 32.7045 24.5814 32.2159 24.8239C31.7311 25.0625 31.1667 25.1818 30.5227 25.1818Z" fill="white"/>
</svg>
